<?xml version="1.0" encoding="UTF-8" standalone="no"?>
<!DOCTYPE svg PUBLIC "-//W3C//DTD SVG 1.1//EN"
 "http://www.w3.org/Graphics/SVG/1.1/DTD/svg11.dtd">
<!-- Generated by graphviz version 7.1.0 (20230122.1345)
 -->
<!-- Title: G Pages: 1 -->
<svg width="881pt" height="457pt"
 viewBox="0.00 0.00 881.00 457.11" xmlns="http://www.w3.org/2000/svg" xmlns:xlink="http://www.w3.org/1999/xlink">
<g id="graph0" class="graph" transform="scale(1 1) rotate(0) translate(4 453.11)">
<title>G</title>
<polygon fill="white" stroke="none" points="-4,4 -4,-453.11 877,-453.11 877,4 -4,4"/>
<g id="clust1" class="cluster">
<title>cluster_1</title>
<polygon fill="none" stroke="blue" points="441,-244 441,-441.11 865,-441.11 865,-244 441,-244"/>
<text text-anchor="middle" x="653" y="-425.91" font-family="Times,serif" font-size="14.00">Best practice audit</text>
</g>
<!-- A -->
<g id="node1" class="node">
<title>A</title>
<polygon fill="none" stroke="black" points="331,-424.74 137,-424.74 137,-341.74 331,-341.74 331,-424.74"/>
<text text-anchor="middle" x="234" y="-409.54" font-family="Times,serif" font-size="14.00">Records identified from: </text>
<text text-anchor="middle" x="234" y="-394.54" font-family="Times,serif" font-size="14.00">Scopus (n = 726) </text>
<text text-anchor="middle" x="234" y="-379.54" font-family="Times,serif" font-size="14.00">PubMed (n = 407) </text>
<text text-anchor="middle" x="234" y="-364.54" font-family="Times,serif" font-size="14.00">ACM (n = 25) </text>
<text text-anchor="middle" x="234" y="-349.54" font-family="Times,serif" font-size="14.00">WoS (n = 650)</text>
</g>
<!-- B -->
<g id="node2" class="node">
<title>B</title>
<polygon fill="none" stroke="black" points="270,-297.87 0,-297.87 0,-259.87 270,-259.87 270,-297.87"/>
<text text-anchor="middle" x="135" y="-282.67" font-family="Times,serif" font-size="14.00">Records removed before screening:</text>
<text text-anchor="middle" x="135" y="-267.67" font-family="Times,serif" font-size="14.00">duplicates (n = 750)</text>
</g>
<!-- A&#45;&gt;B -->
<g id="edge1" class="edge">
<title>A&#45;&gt;B</title>
<path fill="none" stroke="black" d="M194.59,-341.49C183.19,-329.7 171.04,-317.13 160.7,-306.45"/>
<polygon fill="black" stroke="black" points="163.37,-304.18 153.91,-299.42 158.34,-309.04 163.37,-304.18"/>
</g>
<!-- C -->
<g id="node3" class="node">
<title>C</title>
<polygon fill="none" stroke="black" points="431.5,-297.87 288.5,-297.87 288.5,-259.87 431.5,-259.87 431.5,-297.87"/>
<text text-anchor="middle" x="360" y="-282.67" font-family="Times,serif" font-size="14.00">Records screened</text>
<text text-anchor="middle" x="360" y="-267.67" font-family="Times,serif" font-size="14.00"> (n = 1058)</text>
</g>
<!-- A&#45;&gt;C -->
<g id="edge2" class="edge">
<title>A&#45;&gt;C</title>
<path fill="none" stroke="black" d="M284.16,-341.49C299.1,-329.35 315.05,-316.39 328.45,-305.5"/>
<polygon fill="black" stroke="black" points="330.55,-308.31 336.1,-299.29 326.13,-302.88 330.55,-308.31"/>
</g>
<!-- D -->
<g id="node4" class="node">
<title>D</title>
<polygon fill="none" stroke="black" points="334.5,-216 191.5,-216 191.5,-178 334.5,-178 334.5,-216"/>
<text text-anchor="middle" x="263" y="-200.8" font-family="Times,serif" font-size="14.00">Records excluded</text>
<text text-anchor="middle" x="263" y="-185.8" font-family="Times,serif" font-size="14.00"> (n = 492)</text>
</g>
<!-- C&#45;&gt;D -->
<g id="edge3" class="edge">
<title>C&#45;&gt;D</title>
<path fill="none" stroke="black" d="M337.99,-259.75C324.94,-249 308.19,-235.21 293.83,-223.39"/>
<polygon fill="black" stroke="black" points="296.37,-220.95 286.43,-217.29 291.92,-226.35 296.37,-220.95"/>
</g>
<!-- E -->
<g id="node5" class="node">
<title>E</title>
<polygon fill="none" stroke="black" points="561.5,-216 352.5,-216 352.5,-178 561.5,-178 561.5,-216"/>
<text text-anchor="middle" x="457" y="-200.8" font-family="Times,serif" font-size="14.00">Papers sought for retrieval</text>
<text text-anchor="middle" x="457" y="-185.8" font-family="Times,serif" font-size="14.00"> (n = 566)</text>
</g>
<!-- C&#45;&gt;E -->
<g id="edge4" class="edge">
<title>C&#45;&gt;E</title>
<path fill="none" stroke="black" d="M382.01,-259.75C395.06,-249 411.81,-235.21 426.17,-223.39"/>
<polygon fill="black" stroke="black" points="428.08,-226.35 433.57,-217.29 423.63,-220.95 428.08,-226.35"/>
</g>
<!-- F -->
<g id="node6" class="node">
<title>F</title>
<polygon fill="none" stroke="black" points="432,-142 268,-142 268,-104 432,-104 432,-142"/>
<text text-anchor="middle" x="350" y="-126.8" font-family="Times,serif" font-size="14.00">Papers not retrieved</text>
<text text-anchor="middle" x="350" y="-111.8" font-family="Times,serif" font-size="14.00"> (n = 39)</text>
</g>
<!-- E&#45;&gt;F -->
<g id="edge5" class="edge">
<title>E&#45;&gt;F</title>
<path fill="none" stroke="black" d="M429.72,-177.65C416.64,-168.84 400.78,-158.17 386.67,-148.67"/>
<polygon fill="black" stroke="black" points="388.73,-145.85 378.48,-143.17 384.83,-151.65 388.73,-145.85"/>
</g>
<!-- G -->
<g id="node7" class="node">
<title>G</title>
<polygon fill="none" stroke="black" points="680,-142 450,-142 450,-104 680,-104 680,-142"/>
<text text-anchor="middle" x="565" y="-126.8" font-family="Times,serif" font-size="14.00">Papers assessed for eligibility</text>
<text text-anchor="middle" x="565" y="-111.8" font-family="Times,serif" font-size="14.00">(n = 527)</text>
</g>
<!-- E&#45;&gt;G -->
<g id="edge6" class="edge">
<title>E&#45;&gt;G</title>
<path fill="none" stroke="black" d="M484.53,-177.65C497.73,-168.84 513.74,-158.17 527.99,-148.67"/>
<polygon fill="black" stroke="black" points="529.88,-151.62 536.26,-143.16 526,-145.8 529.88,-151.62"/>
</g>
<!-- H -->
<g id="node8" class="node">
<title>H</title>
<polygon fill="none" stroke="black" points="568,-53 362,-53 362,-15 568,-15 568,-53"/>
<text text-anchor="middle" x="465" y="-37.8" font-family="Times,serif" font-size="14.00">Studies included in review</text>
<text text-anchor="middle" x="465" y="-22.8" font-family="Times,serif" font-size="14.00">(n = 486)</text>
</g>
<!-- G&#45;&gt;H -->
<g id="edge7" class="edge">
<title>G&#45;&gt;H</title>
<path fill="none" stroke="black" d="M543.79,-103.55C529.47,-91.09 510.38,-74.48 494.57,-60.72"/>
<polygon fill="black" stroke="black" points="497.16,-58.34 487.32,-54.42 492.57,-63.62 497.16,-58.34"/>
</g>
<!-- I -->
<g id="node9" class="node">
<title>I</title>
<polygon fill="none" stroke="black" points="741.5,-68 586.5,-68 586.5,0 741.5,0 741.5,-68"/>
<text text-anchor="middle" x="664" y="-52.8" font-family="Times,serif" font-size="14.00">Studies excluded:</text>
<text text-anchor="middle" x="664" y="-37.8" font-family="Times,serif" font-size="14.00">Not English (n = 5)</text>
<text text-anchor="middle" x="664" y="-22.8" font-family="Times,serif" font-size="14.00">Not DES (n = 35)</text>
<text text-anchor="middle" x="664" y="-7.8" font-family="Times,serif" font-size="14.00">Not Health (n = 1)</text>
</g>
<!-- G&#45;&gt;I -->
<g id="edge8" class="edge">
<title>G&#45;&gt;I</title>
<path fill="none" stroke="black" d="M586,-103.55C595.31,-95.36 606.67,-85.38 617.81,-75.59"/>
<polygon fill="black" stroke="black" points="619.91,-78.41 625.11,-69.18 615.29,-73.15 619.91,-78.41"/>
</g>
<!-- H0 -->
<g id="node10" class="node">
<title>H0</title>
<ellipse fill="none" stroke="black" cx="760" cy="-383.24" rx="96.75" ry="26.74"/>
<text text-anchor="middle" x="760" y="-387.04" font-family="Times,serif" font-size="14.00">Available models</text>
<text text-anchor="middle" x="760" y="-372.04" font-family="Times,serif" font-size="14.00"> n = 43</text>
</g>
<!-- H2 -->
<g id="node12" class="node">
<title>H2</title>
<ellipse fill="none" stroke="black" cx="653" cy="-278.87" rx="161.44" ry="26.74"/>
<text text-anchor="middle" x="653" y="-282.67" font-family="Times,serif" font-size="14.00">Percentage of models shared </text>
<text text-anchor="middle" x="653" y="-267.67" font-family="Times,serif" font-size="14.00"> 8.8</text>
</g>
<!-- H0&#45;&gt;H2 -->
<g id="edge9" class="edge">
<title>H0&#45;&gt;H2</title>
<path fill="none" stroke="black" d="M733.82,-357.2C720.04,-344.01 702.96,-327.66 688.05,-313.4"/>
<polygon fill="black" stroke="black" points="690.76,-311.15 681.12,-306.77 685.92,-316.21 690.76,-311.15"/>
</g>
<!-- H1 -->
<g id="node11" class="node">
<title>H1</title>
<ellipse fill="none" stroke="black" cx="547" cy="-383.24" rx="98.08" ry="26.74"/>
<text text-anchor="middle" x="547" y="-387.04" font-family="Times,serif" font-size="14.00">Included studies </text>
<text text-anchor="middle" x="547" y="-372.04" font-family="Times,serif" font-size="14.00"> n = 486</text>
</g>
<!-- H1&#45;&gt;H2 -->
<g id="edge10" class="edge">
<title>H1&#45;&gt;H2</title>
<path fill="none" stroke="black" d="M572.93,-357.2C586.58,-344.01 603.51,-327.66 618.28,-313.4"/>
<polygon fill="black" stroke="black" points="620.38,-316.24 625.14,-306.77 615.52,-311.2 620.38,-316.24"/>
</g>
</g>
</svg>
