<?xml version="1.0" encoding="UTF-8" standalone="no"?>
<!DOCTYPE svg PUBLIC "-//W3C//DTD SVG 1.1//EN"
 "http://www.w3.org/Graphics/SVG/1.1/DTD/svg11.dtd">
<!-- Generated by graphviz version 7.0.6 (20230107.1202)
 -->
<!-- Title: PRISMA Pages: 1 -->
<svg width="670pt" height="523pt"
 viewBox="0.00 0.00 670.00 523.00" xmlns="http://www.w3.org/2000/svg" xmlns:xlink="http://www.w3.org/1999/xlink">
<g id="graph0" class="graph" transform="scale(1 1) rotate(0) translate(4 519)">
<title>PRISMA</title>
<polygon fill="white" stroke="none" points="-4,4 -4,-519 666,-519 666,4 -4,4"/>
<!-- A -->
<g id="node1" class="node">
<title>A</title>
<polygon fill="none" stroke="black" points="263,-515 69,-515 69,-432 263,-432 263,-515"/>
<text text-anchor="middle" x="166" y="-499.8" font-family="Times,serif" font-size="14.00">Records identified from: </text>
<text text-anchor="middle" x="166" y="-484.8" font-family="Times,serif" font-size="14.00">Scopus (n = 726) </text>
<text text-anchor="middle" x="166" y="-469.8" font-family="Times,serif" font-size="14.00">PubMed (n = 407) </text>
<text text-anchor="middle" x="166" y="-454.8" font-family="Times,serif" font-size="14.00">ACM (n = 25) </text>
<text text-anchor="middle" x="166" y="-439.8" font-family="Times,serif" font-size="14.00">WoS (n = 650)</text>
</g>
<!-- B -->
<g id="node2" class="node">
<title>B</title>
<polygon fill="none" stroke="black" points="162,-396 0,-396 0,-324 162,-324 162,-396"/>
<text text-anchor="middle" x="81" y="-363.8" font-family="Times,serif" font-size="14.00">Records removed:</text>
<text text-anchor="middle" x="81" y="-348.8" font-family="Times,serif" font-size="14.00">duplicates (n = 750)</text>
</g>
<!-- A&#45;&gt;B -->
<g id="edge1" class="edge">
<title>A&#45;&gt;B</title>
<path fill="none" stroke="black" d="M134.83,-431.61C128.29,-423.03 121.36,-413.95 114.73,-405.25"/>
<polygon fill="black" stroke="black" points="117.73,-403.4 108.88,-397.57 112.16,-407.65 117.73,-403.4"/>
</g>
<!-- C -->
<g id="node3" class="node">
<title>C</title>
<polygon fill="none" stroke="black" points="324,-396 180,-396 180,-324 324,-324 324,-396"/>
<text text-anchor="middle" x="252" y="-363.8" font-family="Times,serif" font-size="14.00">Records screened</text>
<text text-anchor="middle" x="252" y="-348.8" font-family="Times,serif" font-size="14.00"> (n = 1058)</text>
</g>
<!-- A&#45;&gt;C -->
<g id="edge2" class="edge">
<title>A&#45;&gt;C</title>
<path fill="none" stroke="black" d="M197.53,-431.61C204.15,-423.03 211.16,-413.95 217.87,-405.25"/>
<polygon fill="black" stroke="black" points="220.46,-407.62 223.8,-397.57 214.92,-403.35 220.46,-407.62"/>
</g>
<!-- D -->
<g id="node4" class="node">
<title>D</title>
<polygon fill="none" stroke="black" points="227,-288 83,-288 83,-216 227,-216 227,-288"/>
<text text-anchor="middle" x="155" y="-255.8" font-family="Times,serif" font-size="14.00">Records excluded</text>
<text text-anchor="middle" x="155" y="-240.8" font-family="Times,serif" font-size="14.00"> (n = 492)</text>
</g>
<!-- C&#45;&gt;D -->
<g id="edge3" class="edge">
<title>C&#45;&gt;D</title>
<path fill="none" stroke="black" d="M219.7,-323.7C211.77,-315.03 203.18,-305.65 194.93,-296.63"/>
<polygon fill="black" stroke="black" points="197.51,-294.27 188.18,-289.26 192.35,-299 197.51,-294.27"/>
</g>
<!-- E -->
<g id="node5" class="node">
<title>E</title>
<polygon fill="none" stroke="black" points="454.5,-288 245.5,-288 245.5,-216 454.5,-216 454.5,-288"/>
<text text-anchor="middle" x="350" y="-255.8" font-family="Times,serif" font-size="14.00">Papers sought for retrieval</text>
<text text-anchor="middle" x="350" y="-240.8" font-family="Times,serif" font-size="14.00"> (n = 566)</text>
</g>
<!-- C&#45;&gt;E -->
<g id="edge4" class="edge">
<title>C&#45;&gt;E</title>
<path fill="none" stroke="black" d="M284.63,-323.7C292.73,-314.94 301.51,-305.45 309.92,-296.35"/>
<polygon fill="black" stroke="black" points="312.26,-298.97 316.48,-289.25 307.12,-294.22 312.26,-298.97"/>
</g>
<!-- F -->
<g id="node6" class="node">
<title>F</title>
<polygon fill="none" stroke="black" points="324,-180 160,-180 160,-108 324,-108 324,-180"/>
<text text-anchor="middle" x="242" y="-147.8" font-family="Times,serif" font-size="14.00">Papers not retrieved</text>
<text text-anchor="middle" x="242" y="-132.8" font-family="Times,serif" font-size="14.00"> (n = 39)</text>
</g>
<!-- E&#45;&gt;F -->
<g id="edge5" class="edge">
<title>E&#45;&gt;F</title>
<path fill="none" stroke="black" d="M314.04,-215.7C305.02,-206.85 295.24,-197.26 285.89,-188.08"/>
<polygon fill="black" stroke="black" points="288.47,-185.71 278.89,-181.2 283.57,-190.71 288.47,-185.71"/>
</g>
<!-- G -->
<g id="node7" class="node">
<title>G</title>
<polygon fill="none" stroke="black" points="572,-180 342,-180 342,-108 572,-108 572,-180"/>
<text text-anchor="middle" x="457" y="-147.8" font-family="Times,serif" font-size="14.00">Papers assessed for eligibility</text>
<text text-anchor="middle" x="457" y="-132.8" font-family="Times,serif" font-size="14.00">(n = 527)</text>
</g>
<!-- E&#45;&gt;G -->
<g id="edge6" class="edge">
<title>E&#45;&gt;G</title>
<path fill="none" stroke="black" d="M385.63,-215.7C394.56,-206.85 404.25,-197.26 413.52,-188.08"/>
<polygon fill="black" stroke="black" points="415.81,-190.73 420.45,-181.21 410.88,-185.76 415.81,-190.73"/>
</g>
<!-- I -->
<g id="node8" class="node">
<title>I</title>
<polygon fill="none" stroke="black" points="437.5,-70 270.5,-70 270.5,-2 437.5,-2 437.5,-70"/>
<text text-anchor="middle" x="354" y="-54.8" font-family="Times,serif" font-size="14.00">Excluded at full text:</text>
<text text-anchor="middle" x="354" y="-39.8" font-family="Times,serif" font-size="14.00">Not English (n = 5)</text>
<text text-anchor="middle" x="354" y="-24.8" font-family="Times,serif" font-size="14.00">Not DES (n = 35)</text>
<text text-anchor="middle" x="354" y="-9.8" font-family="Times,serif" font-size="14.00">Not Health (n = 1)</text>
</g>
<!-- G&#45;&gt;I -->
<g id="edge7" class="edge">
<title>G&#45;&gt;I</title>
<path fill="none" stroke="black" d="M422.7,-107.7C413.56,-98.29 403.6,-88.04 394.17,-78.34"/>
<polygon fill="black" stroke="black" points="396.94,-76.17 387.46,-71.43 391.92,-81.04 396.94,-76.17"/>
</g>
<!-- H -->
<g id="node9" class="node">
<title>H</title>
<polygon fill="none" stroke="black" points="662,-72 456,-72 456,0 662,0 662,-72"/>
<text text-anchor="middle" x="559" y="-39.8" font-family="Times,serif" font-size="14.00">Studies included in review</text>
<text text-anchor="middle" x="559" y="-24.8" font-family="Times,serif" font-size="14.00">(n = 486)</text>
</g>
<!-- G&#45;&gt;H -->
<g id="edge8" class="edge">
<title>G&#45;&gt;H</title>
<path fill="none" stroke="black" d="M490.96,-107.7C499.39,-98.94 508.53,-89.45 517.28,-80.35"/>
<polygon fill="black" stroke="black" points="519.72,-82.87 524.13,-73.23 514.68,-78.01 519.72,-82.87"/>
</g>
</g>
</svg>
