<?xml version="1.0" encoding="UTF-8" standalone="no"?>
<!DOCTYPE svg PUBLIC "-//W3C//DTD SVG 1.1//EN"
 "http://www.w3.org/Graphics/SVG/1.1/DTD/svg11.dtd">
<!-- Generated by graphviz version 7.0.6 (20230107.1202)
 -->
<!-- Title: G Pages: 1 -->
<svg width="881pt" height="427pt"
 viewBox="0.00 0.00 881.00 427.48" xmlns="http://www.w3.org/2000/svg" xmlns:xlink="http://www.w3.org/1999/xlink">
<g id="graph0" class="graph" transform="scale(1 1) rotate(0) translate(4 423.48)">
<title>G</title>
<polygon fill="white" stroke="none" points="-4,4 -4,-423.48 877,-423.48 877,4 -4,4"/>
<g id="clust1" class="cluster">
<title>cluster_1</title>
<polygon fill="none" stroke="blue" points="441,-229 441,-411.48 865,-411.48 865,-229 441,-229"/>
<text text-anchor="middle" x="653" y="-396.28" font-family="Times,serif" font-size="14.00">Interim results</text>
</g>
<!-- A -->
<g id="node1" class="node">
<title>A</title>
<polygon fill="none" stroke="black" points="331,-380.11 137,-380.11 137,-327.11 331,-327.11 331,-380.11"/>
<text text-anchor="middle" x="234" y="-364.91" font-family="Times,serif" font-size="14.00">Records identified from: </text>
<text text-anchor="middle" x="234" y="-349.91" font-family="Times,serif" font-size="14.00">Scopus (n = 534) </text>
<text text-anchor="middle" x="234" y="-334.91" font-family="Times,serif" font-size="14.00">PubMed (n = 407)</text>
</g>
<!-- B -->
<g id="node2" class="node">
<title>B</title>
<polygon fill="none" stroke="black" points="270,-282.87 0,-282.87 0,-244.87 270,-244.87 270,-282.87"/>
<text text-anchor="middle" x="135" y="-267.67" font-family="Times,serif" font-size="14.00">Records removed before screening:</text>
<text text-anchor="middle" x="135" y="-252.67" font-family="Times,serif" font-size="14.00">duplicates (n = 210)</text>
</g>
<!-- A&#45;&gt;B -->
<g id="edge1" class="edge">
<title>A&#45;&gt;B</title>
<path fill="none" stroke="black" d="M204.83,-326.76C192.04,-315.42 177.06,-302.15 164.26,-290.8"/>
<polygon fill="black" stroke="black" points="166.74,-288.32 156.93,-284.31 162.09,-293.56 166.74,-288.32"/>
</g>
<!-- C -->
<g id="node3" class="node">
<title>C</title>
<polygon fill="none" stroke="black" points="431.5,-282.87 288.5,-282.87 288.5,-244.87 431.5,-244.87 431.5,-282.87"/>
<text text-anchor="middle" x="360" y="-267.67" font-family="Times,serif" font-size="14.00">Records screened</text>
<text text-anchor="middle" x="360" y="-252.67" font-family="Times,serif" font-size="14.00"> (n = 731)</text>
</g>
<!-- A&#45;&gt;C -->
<g id="edge2" class="edge">
<title>A&#45;&gt;C</title>
<path fill="none" stroke="black" d="M271.12,-326.76C287.87,-315.1 307.57,-301.38 324.16,-289.82"/>
<polygon fill="black" stroke="black" points="326.08,-292.76 332.29,-284.17 322.08,-287.01 326.08,-292.76"/>
</g>
<!-- D -->
<g id="node4" class="node">
<title>D</title>
<polygon fill="none" stroke="black" points="334.5,-201 191.5,-201 191.5,-163 334.5,-163 334.5,-201"/>
<text text-anchor="middle" x="263" y="-185.8" font-family="Times,serif" font-size="14.00">Records excluded</text>
<text text-anchor="middle" x="263" y="-170.8" font-family="Times,serif" font-size="14.00"> (n = 247)</text>
</g>
<!-- C&#45;&gt;D -->
<g id="edge3" class="edge">
<title>C&#45;&gt;D</title>
<path fill="none" stroke="black" d="M337.99,-244.75C324.94,-234 308.19,-220.21 293.83,-208.39"/>
<polygon fill="black" stroke="black" points="296.37,-205.95 286.43,-202.29 291.92,-211.35 296.37,-205.95"/>
</g>
<!-- E -->
<g id="node5" class="node">
<title>E</title>
<polygon fill="none" stroke="black" points="561.5,-201 352.5,-201 352.5,-163 561.5,-163 561.5,-201"/>
<text text-anchor="middle" x="457" y="-185.8" font-family="Times,serif" font-size="14.00">Papers sought for retrieval</text>
<text text-anchor="middle" x="457" y="-170.8" font-family="Times,serif" font-size="14.00"> (n = 484)</text>
</g>
<!-- C&#45;&gt;E -->
<g id="edge4" class="edge">
<title>C&#45;&gt;E</title>
<path fill="none" stroke="black" d="M382.01,-244.75C395.06,-234 411.81,-220.21 426.17,-208.39"/>
<polygon fill="black" stroke="black" points="428.08,-211.35 433.57,-202.29 423.63,-205.95 428.08,-211.35"/>
</g>
<!-- F -->
<g id="node6" class="node">
<title>F</title>
<polygon fill="none" stroke="black" points="432,-127 268,-127 268,-89 432,-89 432,-127"/>
<text text-anchor="middle" x="350" y="-111.8" font-family="Times,serif" font-size="14.00">Papers not retrieved</text>
<text text-anchor="middle" x="350" y="-96.8" font-family="Times,serif" font-size="14.00"> (n = 24)</text>
</g>
<!-- E&#45;&gt;F -->
<g id="edge5" class="edge">
<title>E&#45;&gt;F</title>
<path fill="none" stroke="black" d="M429.72,-162.65C416.64,-153.84 400.78,-143.17 386.67,-133.67"/>
<polygon fill="black" stroke="black" points="388.73,-130.85 378.48,-128.17 384.83,-136.65 388.73,-130.85"/>
</g>
<!-- G -->
<g id="node7" class="node">
<title>G</title>
<polygon fill="none" stroke="black" points="680,-127 450,-127 450,-89 680,-89 680,-127"/>
<text text-anchor="middle" x="565" y="-111.8" font-family="Times,serif" font-size="14.00">Papers assessed for eligibility</text>
<text text-anchor="middle" x="565" y="-96.8" font-family="Times,serif" font-size="14.00">(n = 460)</text>
</g>
<!-- E&#45;&gt;G -->
<g id="edge6" class="edge">
<title>E&#45;&gt;G</title>
<path fill="none" stroke="black" d="M484.53,-162.65C497.73,-153.84 513.74,-143.17 527.99,-133.67"/>
<polygon fill="black" stroke="black" points="529.88,-136.62 536.26,-128.16 526,-130.8 529.88,-136.62"/>
</g>
<!-- H -->
<g id="node8" class="node">
<title>H</title>
<polygon fill="none" stroke="black" points="568,-45.5 362,-45.5 362,-7.5 568,-7.5 568,-45.5"/>
<text text-anchor="middle" x="465" y="-30.3" font-family="Times,serif" font-size="14.00">Studies included in review</text>
<text text-anchor="middle" x="465" y="-15.3" font-family="Times,serif" font-size="14.00">(n = 423)</text>
</g>
<!-- G&#45;&gt;H -->
<g id="edge7" class="edge">
<title>G&#45;&gt;H</title>
<path fill="none" stroke="black" d="M541.81,-88.56C528.43,-77.93 511.41,-64.4 496.8,-52.78"/>
<polygon fill="black" stroke="black" points="499.26,-50.26 489.25,-46.78 494.9,-55.74 499.26,-50.26"/>
</g>
<!-- I -->
<g id="node9" class="node">
<title>I</title>
<polygon fill="none" stroke="black" points="741.5,-53 586.5,-53 586.5,0 741.5,0 741.5,-53"/>
<text text-anchor="middle" x="664" y="-37.8" font-family="Times,serif" font-size="14.00">Studies excluded:</text>
<text text-anchor="middle" x="664" y="-22.8" font-family="Times,serif" font-size="14.00">Not English (n = 3)</text>
<text text-anchor="middle" x="664" y="-7.8" font-family="Times,serif" font-size="14.00">Not DES (n = 27)</text>
</g>
<!-- G&#45;&gt;I -->
<g id="edge8" class="edge">
<title>G&#45;&gt;I</title>
<path fill="none" stroke="black" d="M587.96,-88.56C598.34,-80.23 610.93,-70.12 622.85,-60.55"/>
<polygon fill="black" stroke="black" points="625,-63.3 630.61,-54.31 620.62,-57.85 625,-63.3"/>
</g>
<!-- H0 -->
<g id="node10" class="node">
<title>H0</title>
<ellipse fill="none" stroke="black" cx="760" cy="-353.61" rx="96.75" ry="26.74"/>
<text text-anchor="middle" x="760" y="-357.41" font-family="Times,serif" font-size="14.00">Available models</text>
<text text-anchor="middle" x="760" y="-342.41" font-family="Times,serif" font-size="14.00"> n = 39</text>
</g>
<!-- H2 -->
<g id="node12" class="node">
<title>H2</title>
<ellipse fill="none" stroke="black" cx="653" cy="-263.87" rx="161.44" ry="26.74"/>
<text text-anchor="middle" x="653" y="-267.67" font-family="Times,serif" font-size="14.00">Percentage of models shared </text>
<text text-anchor="middle" x="653" y="-252.67" font-family="Times,serif" font-size="14.00"> 9.2</text>
</g>
<!-- H0&#45;&gt;H2 -->
<g id="edge9" class="edge">
<title>H0&#45;&gt;H2</title>
<path fill="none" stroke="black" d="M729.91,-327.94C718.47,-318.56 705.25,-307.72 693.03,-297.7"/>
<polygon fill="black" stroke="black" points="695.48,-295.18 685.53,-291.54 691.04,-300.59 695.48,-295.18"/>
</g>
<!-- H1 -->
<g id="node11" class="node">
<title>H1</title>
<ellipse fill="none" stroke="black" cx="547" cy="-353.61" rx="98.08" ry="26.74"/>
<text text-anchor="middle" x="547" y="-357.41" font-family="Times,serif" font-size="14.00">Included studies </text>
<text text-anchor="middle" x="547" y="-342.41" font-family="Times,serif" font-size="14.00"> n = 423</text>
</g>
<!-- H1&#45;&gt;H2 -->
<g id="edge10" class="edge">
<title>H1&#45;&gt;H2</title>
<path fill="none" stroke="black" d="M577.09,-327.7C588.42,-318.33 601.48,-307.52 613.53,-297.54"/>
<polygon fill="black" stroke="black" points="615.46,-300.49 620.93,-291.42 610.99,-295.1 615.46,-300.49"/>
</g>
</g>
</svg>
