<?xml version="1.0" encoding="UTF-8" standalone="no"?>
<!DOCTYPE svg PUBLIC "-//W3C//DTD SVG 1.1//EN"
 "http://www.w3.org/Graphics/SVG/1.1/DTD/svg11.dtd">
<!-- Generated by graphviz version 7.0.6 (20230107.1202)
 -->
<!-- Title: PRISMA Pages: 1 -->
<svg width="670pt" height="534pt"
 viewBox="0.00 0.00 670.00 534.00" xmlns="http://www.w3.org/2000/svg" xmlns:xlink="http://www.w3.org/1999/xlink">
<g id="graph0" class="graph" transform="scale(1 1) rotate(0) translate(4 530)">
<title>PRISMA</title>
<polygon fill="white" stroke="none" points="-4,4 -4,-530 666,-530 666,4 -4,4"/>
<!-- A -->
<g id="node1" class="node">
<title>A</title>
<polygon fill="none" stroke="black" points="263,-526 69,-526 69,-443 263,-443 263,-526"/>
<text text-anchor="middle" x="166" y="-510.8" font-family="Times,serif" font-size="14.00">Records identified from: </text>
<text text-anchor="middle" x="166" y="-495.8" font-family="Times,serif" font-size="14.00">Scopus (n = 726) </text>
<text text-anchor="middle" x="166" y="-480.8" font-family="Times,serif" font-size="14.00">PubMed (n = 407) </text>
<text text-anchor="middle" x="166" y="-465.8" font-family="Times,serif" font-size="14.00">ACM (n = 25) </text>
<text text-anchor="middle" x="166" y="-450.8" font-family="Times,serif" font-size="14.00">WoS (n = 650)</text>
</g>
<!-- B -->
<g id="node2" class="node">
<title>B</title>
<polygon fill="none" stroke="black" points="162,-407 0,-407 0,-335 162,-335 162,-407"/>
<text text-anchor="middle" x="81" y="-374.8" font-family="Times,serif" font-size="14.00">Records removed:</text>
<text text-anchor="middle" x="81" y="-359.8" font-family="Times,serif" font-size="14.00">duplicates (n = 750)</text>
</g>
<!-- A&#45;&gt;B -->
<g id="edge1" class="edge">
<title>A&#45;&gt;B</title>
<path fill="none" stroke="black" d="M134.83,-442.61C128.29,-434.03 121.36,-424.95 114.73,-416.25"/>
<polygon fill="black" stroke="black" points="117.73,-414.4 108.88,-408.57 112.16,-418.65 117.73,-414.4"/>
</g>
<!-- C -->
<g id="node3" class="node">
<title>C</title>
<polygon fill="none" stroke="black" points="324,-407 180,-407 180,-335 324,-335 324,-407"/>
<text text-anchor="middle" x="252" y="-374.8" font-family="Times,serif" font-size="14.00">Records screened</text>
<text text-anchor="middle" x="252" y="-359.8" font-family="Times,serif" font-size="14.00"> (n = 1058)</text>
</g>
<!-- A&#45;&gt;C -->
<g id="edge2" class="edge">
<title>A&#45;&gt;C</title>
<path fill="none" stroke="black" d="M197.53,-442.61C204.15,-434.03 211.16,-424.95 217.87,-416.25"/>
<polygon fill="black" stroke="black" points="220.46,-418.62 223.8,-408.57 214.92,-414.35 220.46,-418.62"/>
</g>
<!-- D -->
<g id="node4" class="node">
<title>D</title>
<polygon fill="none" stroke="black" points="227,-299 83,-299 83,-227 227,-227 227,-299"/>
<text text-anchor="middle" x="155" y="-266.8" font-family="Times,serif" font-size="14.00">Records excluded</text>
<text text-anchor="middle" x="155" y="-251.8" font-family="Times,serif" font-size="14.00"> (n = 403)</text>
</g>
<!-- C&#45;&gt;D -->
<g id="edge3" class="edge">
<title>C&#45;&gt;D</title>
<path fill="none" stroke="black" d="M219.7,-334.7C211.77,-326.03 203.18,-316.65 194.93,-307.63"/>
<polygon fill="black" stroke="black" points="197.51,-305.27 188.18,-300.26 192.35,-310 197.51,-305.27"/>
</g>
<!-- E -->
<g id="node5" class="node">
<title>E</title>
<polygon fill="none" stroke="black" points="454.5,-299 245.5,-299 245.5,-227 454.5,-227 454.5,-299"/>
<text text-anchor="middle" x="350" y="-266.8" font-family="Times,serif" font-size="14.00">Papers sought for retrieval</text>
<text text-anchor="middle" x="350" y="-251.8" font-family="Times,serif" font-size="14.00"> (n = 655)</text>
</g>
<!-- C&#45;&gt;E -->
<g id="edge4" class="edge">
<title>C&#45;&gt;E</title>
<path fill="none" stroke="black" d="M284.63,-334.7C292.73,-325.94 301.51,-316.45 309.92,-307.35"/>
<polygon fill="black" stroke="black" points="312.26,-309.97 316.48,-300.25 307.12,-305.22 312.26,-309.97"/>
</g>
<!-- F -->
<g id="node6" class="node">
<title>F</title>
<polygon fill="none" stroke="black" points="324,-191 160,-191 160,-119 324,-119 324,-191"/>
<text text-anchor="middle" x="242" y="-158.8" font-family="Times,serif" font-size="14.00">Papers not retrieved</text>
<text text-anchor="middle" x="242" y="-143.8" font-family="Times,serif" font-size="14.00"> (n = 49)</text>
</g>
<!-- E&#45;&gt;F -->
<g id="edge5" class="edge">
<title>E&#45;&gt;F</title>
<path fill="none" stroke="black" d="M314.04,-226.7C305.02,-217.85 295.24,-208.26 285.89,-199.08"/>
<polygon fill="black" stroke="black" points="288.47,-196.71 278.89,-192.2 283.57,-201.71 288.47,-196.71"/>
</g>
<!-- G -->
<g id="node7" class="node">
<title>G</title>
<polygon fill="none" stroke="black" points="572,-191 342,-191 342,-119 572,-119 572,-191"/>
<text text-anchor="middle" x="457" y="-158.8" font-family="Times,serif" font-size="14.00">Papers assessed for eligibility</text>
<text text-anchor="middle" x="457" y="-143.8" font-family="Times,serif" font-size="14.00">(n = 606)</text>
</g>
<!-- E&#45;&gt;G -->
<g id="edge6" class="edge">
<title>E&#45;&gt;G</title>
<path fill="none" stroke="black" d="M385.63,-226.7C394.56,-217.85 404.25,-208.26 413.52,-199.08"/>
<polygon fill="black" stroke="black" points="415.81,-201.73 420.45,-192.21 410.88,-196.76 415.81,-201.73"/>
</g>
<!-- I -->
<g id="node8" class="node">
<title>I</title>
<polygon fill="none" stroke="black" points="437.5,-83 270.5,-83 270.5,0 437.5,0 437.5,-83"/>
<text text-anchor="middle" x="354" y="-67.8" font-family="Times,serif" font-size="14.00">Excluded at full text:</text>
<text text-anchor="middle" x="354" y="-52.8" font-family="Times,serif" font-size="14.00">Not English (n = 5)</text>
<text text-anchor="middle" x="354" y="-37.8" font-family="Times,serif" font-size="14.00">Not DES (n = 41)</text>
<text text-anchor="middle" x="354" y="-22.8" font-family="Times,serif" font-size="14.00">Not Health (n = 1)</text>
<text text-anchor="middle" x="354" y="-7.8" font-family="Times,serif" font-size="14.00">PRE PRINT (n = 0)</text>
</g>
<!-- G&#45;&gt;I -->
<g id="edge7" class="edge">
<title>G&#45;&gt;I</title>
<path fill="none" stroke="black" d="M424.41,-118.72C416.47,-110.12 407.83,-100.77 399.41,-91.66"/>
<polygon fill="black" stroke="black" points="402.15,-89.47 392.8,-84.5 397.01,-94.22 402.15,-89.47"/>
</g>
<!-- H -->
<g id="node9" class="node">
<title>H</title>
<polygon fill="none" stroke="black" points="662,-77.5 456,-77.5 456,-5.5 662,-5.5 662,-77.5"/>
<text text-anchor="middle" x="559" y="-45.3" font-family="Times,serif" font-size="14.00">Studies included in review</text>
<text text-anchor="middle" x="559" y="-30.3" font-family="Times,serif" font-size="14.00">(n = 559)</text>
</g>
<!-- G&#45;&gt;H -->
<g id="edge8" class="edge">
<title>G&#45;&gt;H</title>
<path fill="none" stroke="black" d="M489.27,-118.72C498.67,-108.45 509.05,-97.1 518.86,-86.37"/>
<polygon fill="black" stroke="black" points="521.4,-88.79 525.56,-79.05 516.23,-84.07 521.4,-88.79"/>
</g>
</g>
</svg>
