<?xml version="1.0" encoding="UTF-8" standalone="no"?>
<!DOCTYPE svg PUBLIC "-//W3C//DTD SVG 1.1//EN"
 "http://www.w3.org/Graphics/SVG/1.1/DTD/svg11.dtd">
<!-- Generated by graphviz version 7.0.6 (20230107.1202)
 -->
<!-- Title: G Pages: 1 -->
<svg width="881pt" height="442pt"
 viewBox="0.00 0.00 881.00 442.48" xmlns="http://www.w3.org/2000/svg" xmlns:xlink="http://www.w3.org/1999/xlink">
<g id="graph0" class="graph" transform="scale(1 1) rotate(0) translate(4 438.48)">
<title>G</title>
<polygon fill="white" stroke="none" points="-4,4 -4,-438.48 877,-438.48 877,4 -4,4"/>
<g id="clust1" class="cluster">
<title>cluster_1</title>
<polygon fill="none" stroke="blue" points="441,-244 441,-426.48 865,-426.48 865,-244 441,-244"/>
<text text-anchor="middle" x="653" y="-411.28" font-family="Times,serif" font-size="14.00">Interim results</text>
</g>
<!-- A -->
<g id="node1" class="node">
<title>A</title>
<polygon fill="none" stroke="black" points="331,-395.11 137,-395.11 137,-342.11 331,-342.11 331,-395.11"/>
<text text-anchor="middle" x="234" y="-379.91" font-family="Times,serif" font-size="14.00">Records identified from: </text>
<text text-anchor="middle" x="234" y="-364.91" font-family="Times,serif" font-size="14.00">Scopus (n = 534) </text>
<text text-anchor="middle" x="234" y="-349.91" font-family="Times,serif" font-size="14.00">PubMed (n = 407)</text>
</g>
<!-- B -->
<g id="node2" class="node">
<title>B</title>
<polygon fill="none" stroke="black" points="270,-297.87 0,-297.87 0,-259.87 270,-259.87 270,-297.87"/>
<text text-anchor="middle" x="135" y="-282.67" font-family="Times,serif" font-size="14.00">Records removed before screening:</text>
<text text-anchor="middle" x="135" y="-267.67" font-family="Times,serif" font-size="14.00">duplicates (n = 210)</text>
</g>
<!-- A&#45;&gt;B -->
<g id="edge1" class="edge">
<title>A&#45;&gt;B</title>
<path fill="none" stroke="black" d="M204.83,-341.76C192.04,-330.42 177.06,-317.15 164.26,-305.8"/>
<polygon fill="black" stroke="black" points="166.74,-303.32 156.93,-299.31 162.09,-308.56 166.74,-303.32"/>
</g>
<!-- C -->
<g id="node3" class="node">
<title>C</title>
<polygon fill="none" stroke="black" points="431.5,-297.87 288.5,-297.87 288.5,-259.87 431.5,-259.87 431.5,-297.87"/>
<text text-anchor="middle" x="360" y="-282.67" font-family="Times,serif" font-size="14.00">Records screened</text>
<text text-anchor="middle" x="360" y="-267.67" font-family="Times,serif" font-size="14.00"> (n = 731)</text>
</g>
<!-- A&#45;&gt;C -->
<g id="edge2" class="edge">
<title>A&#45;&gt;C</title>
<path fill="none" stroke="black" d="M271.12,-341.76C287.87,-330.1 307.57,-316.38 324.16,-304.82"/>
<polygon fill="black" stroke="black" points="326.08,-307.76 332.29,-299.17 322.08,-302.01 326.08,-307.76"/>
</g>
<!-- D -->
<g id="node4" class="node">
<title>D</title>
<polygon fill="none" stroke="black" points="334.5,-216 191.5,-216 191.5,-178 334.5,-178 334.5,-216"/>
<text text-anchor="middle" x="263" y="-200.8" font-family="Times,serif" font-size="14.00">Records excluded</text>
<text text-anchor="middle" x="263" y="-185.8" font-family="Times,serif" font-size="14.00"> (n = 247)</text>
</g>
<!-- C&#45;&gt;D -->
<g id="edge3" class="edge">
<title>C&#45;&gt;D</title>
<path fill="none" stroke="black" d="M337.99,-259.75C324.94,-249 308.19,-235.21 293.83,-223.39"/>
<polygon fill="black" stroke="black" points="296.37,-220.95 286.43,-217.29 291.92,-226.35 296.37,-220.95"/>
</g>
<!-- E -->
<g id="node5" class="node">
<title>E</title>
<polygon fill="none" stroke="black" points="561.5,-216 352.5,-216 352.5,-178 561.5,-178 561.5,-216"/>
<text text-anchor="middle" x="457" y="-200.8" font-family="Times,serif" font-size="14.00">Papers sought for retrieval</text>
<text text-anchor="middle" x="457" y="-185.8" font-family="Times,serif" font-size="14.00"> (n = 484)</text>
</g>
<!-- C&#45;&gt;E -->
<g id="edge4" class="edge">
<title>C&#45;&gt;E</title>
<path fill="none" stroke="black" d="M382.01,-259.75C395.06,-249 411.81,-235.21 426.17,-223.39"/>
<polygon fill="black" stroke="black" points="428.08,-226.35 433.57,-217.29 423.63,-220.95 428.08,-226.35"/>
</g>
<!-- F -->
<g id="node6" class="node">
<title>F</title>
<polygon fill="none" stroke="black" points="432,-142 268,-142 268,-104 432,-104 432,-142"/>
<text text-anchor="middle" x="350" y="-126.8" font-family="Times,serif" font-size="14.00">Papers not retrieved</text>
<text text-anchor="middle" x="350" y="-111.8" font-family="Times,serif" font-size="14.00"> (n = ?)</text>
</g>
<!-- E&#45;&gt;F -->
<g id="edge5" class="edge">
<title>E&#45;&gt;F</title>
<path fill="none" stroke="black" d="M429.72,-177.65C416.64,-168.84 400.78,-158.17 386.67,-148.67"/>
<polygon fill="black" stroke="black" points="388.73,-145.85 378.48,-143.17 384.83,-151.65 388.73,-145.85"/>
</g>
<!-- G -->
<g id="node7" class="node">
<title>G</title>
<polygon fill="none" stroke="black" points="680,-142 450,-142 450,-104 680,-104 680,-142"/>
<text text-anchor="middle" x="565" y="-126.8" font-family="Times,serif" font-size="14.00">Papers assessed for eligibility</text>
<text text-anchor="middle" x="565" y="-111.8" font-family="Times,serif" font-size="14.00">(n = 338 so far)</text>
</g>
<!-- E&#45;&gt;G -->
<g id="edge6" class="edge">
<title>E&#45;&gt;G</title>
<path fill="none" stroke="black" d="M484.53,-177.65C497.73,-168.84 513.74,-158.17 527.99,-148.67"/>
<polygon fill="black" stroke="black" points="529.88,-151.62 536.26,-143.16 526,-145.8 529.88,-151.62"/>
</g>
<!-- H -->
<g id="node8" class="node">
<title>H</title>
<polygon fill="none" stroke="black" points="571,-53 365,-53 365,-15 571,-15 571,-53"/>
<text text-anchor="middle" x="468" y="-37.8" font-family="Times,serif" font-size="14.00">Studies included in review</text>
<text text-anchor="middle" x="468" y="-22.8" font-family="Times,serif" font-size="14.00">(n = 288 so far)</text>
</g>
<!-- G&#45;&gt;H -->
<g id="edge7" class="edge">
<title>G&#45;&gt;H</title>
<path fill="none" stroke="black" d="M544.43,-103.55C530.67,-91.21 512.36,-74.78 497.11,-61.11"/>
<polygon fill="black" stroke="black" points="499.45,-58.51 489.67,-54.43 494.78,-63.72 499.45,-58.51"/>
</g>
<!-- I -->
<g id="node9" class="node">
<title>I</title>
<polygon fill="none" stroke="black" points="732.5,-68 589.5,-68 589.5,0 732.5,0 732.5,-68"/>
<text text-anchor="middle" x="661" y="-52.8" font-family="Times,serif" font-size="14.00">Studies excluded:</text>
<text text-anchor="middle" x="661" y="-37.8" font-family="Times,serif" font-size="14.00">Reason 1 (n = ?)</text>
<text text-anchor="middle" x="661" y="-22.8" font-family="Times,serif" font-size="14.00">Reason 2 (n = ?)</text>
<text text-anchor="middle" x="661" y="-7.8" font-family="Times,serif" font-size="14.00">Reason 3 (n = ?)</text>
</g>
<!-- G&#45;&gt;I -->
<g id="edge8" class="edge">
<title>G&#45;&gt;I</title>
<path fill="none" stroke="black" d="M585.36,-103.55C594.31,-95.44 605.2,-85.57 615.89,-75.88"/>
<polygon fill="black" stroke="black" points="618.21,-78.5 623.27,-69.19 613.51,-73.32 618.21,-78.5"/>
</g>
<!-- H0 -->
<g id="node10" class="node">
<title>H0</title>
<ellipse fill="none" stroke="black" cx="760" cy="-368.61" rx="96.75" ry="26.74"/>
<text text-anchor="middle" x="760" y="-372.41" font-family="Times,serif" font-size="14.00">Available models</text>
<text text-anchor="middle" x="760" y="-357.41" font-family="Times,serif" font-size="14.00"> n = 27</text>
</g>
<!-- H2 -->
<g id="node12" class="node">
<title>H2</title>
<ellipse fill="none" stroke="black" cx="653" cy="-278.87" rx="161.44" ry="26.74"/>
<text text-anchor="middle" x="653" y="-282.67" font-family="Times,serif" font-size="14.00">Percentage of models shared </text>
<text text-anchor="middle" x="653" y="-267.67" font-family="Times,serif" font-size="14.00"> ~9%</text>
</g>
<!-- H0&#45;&gt;H2 -->
<g id="edge9" class="edge">
<title>H0&#45;&gt;H2</title>
<path fill="none" stroke="black" d="M729.91,-342.94C718.47,-333.56 705.25,-322.72 693.03,-312.7"/>
<polygon fill="black" stroke="black" points="695.48,-310.18 685.53,-306.54 691.04,-315.59 695.48,-310.18"/>
</g>
<!-- H1 -->
<g id="node11" class="node">
<title>H1</title>
<ellipse fill="none" stroke="black" cx="547" cy="-368.61" rx="98.08" ry="26.74"/>
<text text-anchor="middle" x="547" y="-372.41" font-family="Times,serif" font-size="14.00">Included studies </text>
<text text-anchor="middle" x="547" y="-357.41" font-family="Times,serif" font-size="14.00"> n = 288 so far</text>
</g>
<!-- H1&#45;&gt;H2 -->
<g id="edge10" class="edge">
<title>H1&#45;&gt;H2</title>
<path fill="none" stroke="black" d="M577.09,-342.7C588.42,-333.33 601.48,-322.52 613.53,-312.54"/>
<polygon fill="black" stroke="black" points="615.46,-315.49 620.93,-306.42 610.99,-310.1 615.46,-315.49"/>
</g>
</g>
</svg>
